<mxfile host="app.diagrams.net" modified="2022-09-04T14:49:15.190Z" agent="5.0 (Macintosh; Intel Mac OS X 10_15_7) AppleWebKit/605.1.15 (KHTML, like Gecko) Version/15.5 Safari/605.1.15" etag="t4LeWVM449aWHAg14XKq" version="20.2.8" type="github">
  <diagram id="4yuu9gXcL_emwKeABE3X" name="หน้า-1">
    <mxGraphModel dx="813" dy="542" grid="1" gridSize="10" guides="1" tooltips="1" connect="1" arrows="1" fold="1" page="1" pageScale="1" pageWidth="827" pageHeight="1169" math="0" shadow="0">
      <root>
        <mxCell id="0" />
        <mxCell id="1" parent="0" />
        <mxCell id="hAxprEwVptctf-NwSV-K-1" value="" style="swimlane;startSize=0;" vertex="1" parent="1">
          <mxGeometry x="120" y="230" width="670" height="90" as="geometry" />
        </mxCell>
        <mxCell id="hAxprEwVptctf-NwSV-K-74" value="Virtualized Middleware" style="text;html=1;align=center;verticalAlign=middle;resizable=0;points=[];autosize=1;strokeColor=none;fillColor=none;" vertex="1" parent="hAxprEwVptctf-NwSV-K-1">
          <mxGeometry x="260" width="140" height="30" as="geometry" />
        </mxCell>
        <mxCell id="hAxprEwVptctf-NwSV-K-75" value="Deployment &amp;nbsp;Manager" style="rounded=0;whiteSpace=wrap;html=1;" vertex="1" parent="hAxprEwVptctf-NwSV-K-1">
          <mxGeometry x="520" y="30" width="130" height="50" as="geometry" />
        </mxCell>
        <mxCell id="hAxprEwVptctf-NwSV-K-79" value="Processing Grid" style="rounded=0;whiteSpace=wrap;html=1;" vertex="1" parent="hAxprEwVptctf-NwSV-K-1">
          <mxGeometry x="360" y="30" width="130" height="50" as="geometry" />
        </mxCell>
        <mxCell id="hAxprEwVptctf-NwSV-K-80" value="Data Grid" style="rounded=0;whiteSpace=wrap;html=1;" vertex="1" parent="hAxprEwVptctf-NwSV-K-1">
          <mxGeometry x="190" y="30" width="130" height="50" as="geometry" />
        </mxCell>
        <mxCell id="hAxprEwVptctf-NwSV-K-81" value="Messaging Grid" style="rounded=0;whiteSpace=wrap;html=1;" vertex="1" parent="hAxprEwVptctf-NwSV-K-1">
          <mxGeometry x="20" y="30" width="130" height="50" as="geometry" />
        </mxCell>
        <mxCell id="hAxprEwVptctf-NwSV-K-4" value="Place Order" style="swimlane;" vertex="1" parent="1">
          <mxGeometry x="630" y="30" width="160" height="150" as="geometry" />
        </mxCell>
        <mxCell id="hAxprEwVptctf-NwSV-K-15" value="class" style="rounded=0;whiteSpace=wrap;html=1;" vertex="1" parent="hAxprEwVptctf-NwSV-K-4">
          <mxGeometry x="58.25" y="30" width="43.5" height="20" as="geometry" />
        </mxCell>
        <mxCell id="hAxprEwVptctf-NwSV-K-19" value="In-Memory Data Grid" style="rounded=0;whiteSpace=wrap;html=1;" vertex="1" parent="hAxprEwVptctf-NwSV-K-4">
          <mxGeometry x="20" y="70" width="120" height="20" as="geometry" />
        </mxCell>
        <mxCell id="hAxprEwVptctf-NwSV-K-24" value="Data Replication Engine" style="rounded=0;whiteSpace=wrap;html=1;" vertex="1" parent="hAxprEwVptctf-NwSV-K-4">
          <mxGeometry x="10" y="110" width="140" height="20" as="geometry" />
        </mxCell>
        <mxCell id="hAxprEwVptctf-NwSV-K-31" value="" style="endArrow=classic;html=1;rounded=0;exitX=0.5;exitY=1;exitDx=0;exitDy=0;entryX=0.5;entryY=0;entryDx=0;entryDy=0;" edge="1" parent="hAxprEwVptctf-NwSV-K-4" source="hAxprEwVptctf-NwSV-K-15" target="hAxprEwVptctf-NwSV-K-19">
          <mxGeometry width="50" height="50" relative="1" as="geometry">
            <mxPoint x="-200" y="360" as="sourcePoint" />
            <mxPoint x="20" y="160" as="targetPoint" />
          </mxGeometry>
        </mxCell>
        <mxCell id="hAxprEwVptctf-NwSV-K-6" value="Payment" style="swimlane;" vertex="1" parent="1">
          <mxGeometry x="445" y="30" width="160" height="150" as="geometry" />
        </mxCell>
        <mxCell id="hAxprEwVptctf-NwSV-K-16" value="class" style="rounded=0;whiteSpace=wrap;html=1;" vertex="1" parent="hAxprEwVptctf-NwSV-K-6">
          <mxGeometry x="58.25" y="30" width="43.5" height="20" as="geometry" />
        </mxCell>
        <mxCell id="hAxprEwVptctf-NwSV-K-20" value="In-Memory Data Grid" style="rounded=0;whiteSpace=wrap;html=1;" vertex="1" parent="hAxprEwVptctf-NwSV-K-6">
          <mxGeometry x="20" y="70" width="120" height="20" as="geometry" />
        </mxCell>
        <mxCell id="hAxprEwVptctf-NwSV-K-27" value="Data Replication Engine" style="rounded=0;whiteSpace=wrap;html=1;" vertex="1" parent="hAxprEwVptctf-NwSV-K-6">
          <mxGeometry x="10" y="110" width="140" height="20" as="geometry" />
        </mxCell>
        <mxCell id="hAxprEwVptctf-NwSV-K-36" value="" style="endArrow=classic;html=1;rounded=0;exitX=0.5;exitY=1;exitDx=0;exitDy=0;entryX=0.5;entryY=0;entryDx=0;entryDy=0;" edge="1" parent="hAxprEwVptctf-NwSV-K-6" source="hAxprEwVptctf-NwSV-K-20" target="hAxprEwVptctf-NwSV-K-27">
          <mxGeometry width="50" height="50" relative="1" as="geometry">
            <mxPoint x="95" y="100" as="sourcePoint" />
            <mxPoint x="95" y="120" as="targetPoint" />
          </mxGeometry>
        </mxCell>
        <mxCell id="hAxprEwVptctf-NwSV-K-7" value="Process Order" style="swimlane;" vertex="1" parent="1">
          <mxGeometry x="250" y="30" width="173.5" height="150" as="geometry" />
        </mxCell>
        <mxCell id="hAxprEwVptctf-NwSV-K-17" value="class" style="rounded=0;whiteSpace=wrap;html=1;" vertex="1" parent="hAxprEwVptctf-NwSV-K-7">
          <mxGeometry x="65" y="30" width="43.5" height="20" as="geometry" />
        </mxCell>
        <mxCell id="hAxprEwVptctf-NwSV-K-21" value="In-Memory Data Grid" style="rounded=0;whiteSpace=wrap;html=1;" vertex="1" parent="hAxprEwVptctf-NwSV-K-7">
          <mxGeometry x="26.75" y="70" width="120" height="20" as="geometry" />
        </mxCell>
        <mxCell id="hAxprEwVptctf-NwSV-K-28" value="Data Replication Engine" style="rounded=0;whiteSpace=wrap;html=1;" vertex="1" parent="hAxprEwVptctf-NwSV-K-7">
          <mxGeometry x="16.75" y="110" width="140" height="20" as="geometry" />
        </mxCell>
        <mxCell id="hAxprEwVptctf-NwSV-K-33" value="" style="endArrow=classic;html=1;rounded=0;exitX=0.5;exitY=1;exitDx=0;exitDy=0;entryX=0.5;entryY=0;entryDx=0;entryDy=0;" edge="1" parent="hAxprEwVptctf-NwSV-K-7" source="hAxprEwVptctf-NwSV-K-17" target="hAxprEwVptctf-NwSV-K-21">
          <mxGeometry width="50" height="50" relative="1" as="geometry">
            <mxPoint x="100" y="60" as="sourcePoint" />
            <mxPoint x="100" y="80" as="targetPoint" />
          </mxGeometry>
        </mxCell>
        <mxCell id="hAxprEwVptctf-NwSV-K-37" value="" style="endArrow=classic;html=1;rounded=0;exitX=0.5;exitY=1;exitDx=0;exitDy=0;entryX=0.5;entryY=0;entryDx=0;entryDy=0;" edge="1" parent="hAxprEwVptctf-NwSV-K-7" source="hAxprEwVptctf-NwSV-K-21" target="hAxprEwVptctf-NwSV-K-28">
          <mxGeometry width="50" height="50" relative="1" as="geometry">
            <mxPoint x="80" y="90" as="sourcePoint" />
            <mxPoint x="80" y="110" as="targetPoint" />
          </mxGeometry>
        </mxCell>
        <mxCell id="hAxprEwVptctf-NwSV-K-8" value="Notification" style="swimlane;" vertex="1" parent="1">
          <mxGeometry x="50" y="30" width="180" height="150" as="geometry" />
        </mxCell>
        <mxCell id="hAxprEwVptctf-NwSV-K-18" value="class" style="rounded=0;whiteSpace=wrap;html=1;" vertex="1" parent="hAxprEwVptctf-NwSV-K-8">
          <mxGeometry x="68.25" y="30" width="43.5" height="20" as="geometry" />
        </mxCell>
        <mxCell id="hAxprEwVptctf-NwSV-K-22" value="In-Memory Data Grid" style="rounded=0;whiteSpace=wrap;html=1;" vertex="1" parent="hAxprEwVptctf-NwSV-K-8">
          <mxGeometry x="30" y="70" width="120" height="20" as="geometry" />
        </mxCell>
        <mxCell id="hAxprEwVptctf-NwSV-K-29" value="Data Replication Engine" style="rounded=0;whiteSpace=wrap;html=1;" vertex="1" parent="hAxprEwVptctf-NwSV-K-8">
          <mxGeometry x="20" y="110" width="140" height="20" as="geometry" />
        </mxCell>
        <mxCell id="hAxprEwVptctf-NwSV-K-34" value="" style="endArrow=classic;html=1;rounded=0;exitX=0.5;exitY=1;exitDx=0;exitDy=0;entryX=0.5;entryY=0;entryDx=0;entryDy=0;" edge="1" parent="hAxprEwVptctf-NwSV-K-8" source="hAxprEwVptctf-NwSV-K-18" target="hAxprEwVptctf-NwSV-K-22">
          <mxGeometry width="50" height="50" relative="1" as="geometry">
            <mxPoint x="80" y="60" as="sourcePoint" />
            <mxPoint x="80" y="80" as="targetPoint" />
          </mxGeometry>
        </mxCell>
        <mxCell id="hAxprEwVptctf-NwSV-K-38" value="" style="endArrow=classic;html=1;rounded=0;exitX=0.5;exitY=1;exitDx=0;exitDy=0;entryX=0.5;entryY=0;entryDx=0;entryDy=0;" edge="1" parent="hAxprEwVptctf-NwSV-K-8" source="hAxprEwVptctf-NwSV-K-22" target="hAxprEwVptctf-NwSV-K-29">
          <mxGeometry width="50" height="50" relative="1" as="geometry">
            <mxPoint x="100" y="100" as="sourcePoint" />
            <mxPoint x="100" y="120" as="targetPoint" />
          </mxGeometry>
        </mxCell>
        <mxCell id="hAxprEwVptctf-NwSV-K-9" value="" style="swimlane;startSize=0;" vertex="1" parent="1">
          <mxGeometry x="250" y="430" width="130" height="80" as="geometry" />
        </mxCell>
        <mxCell id="hAxprEwVptctf-NwSV-K-12" value="Data Reader" style="text;html=1;align=center;verticalAlign=middle;resizable=0;points=[];autosize=1;strokeColor=none;fillColor=none;" vertex="1" parent="hAxprEwVptctf-NwSV-K-9">
          <mxGeometry x="20" y="30" width="90" height="30" as="geometry" />
        </mxCell>
        <mxCell id="hAxprEwVptctf-NwSV-K-10" value="" style="swimlane;startSize=0;" vertex="1" parent="1">
          <mxGeometry x="250" y="550" width="130" height="80" as="geometry" />
        </mxCell>
        <mxCell id="hAxprEwVptctf-NwSV-K-13" value="Data Writer" style="text;html=1;align=center;verticalAlign=middle;resizable=0;points=[];autosize=1;strokeColor=none;fillColor=none;" vertex="1" parent="hAxprEwVptctf-NwSV-K-10">
          <mxGeometry x="25" y="25" width="80" height="30" as="geometry" />
        </mxCell>
        <mxCell id="hAxprEwVptctf-NwSV-K-14" value="Database" style="shape=cylinder3;whiteSpace=wrap;html=1;boundedLbl=1;backgroundOutline=1;size=15;" vertex="1" parent="1">
          <mxGeometry x="475" y="450" width="130" height="170" as="geometry" />
        </mxCell>
        <mxCell id="hAxprEwVptctf-NwSV-K-32" value="" style="endArrow=classic;html=1;rounded=0;exitX=0.5;exitY=1;exitDx=0;exitDy=0;" edge="1" parent="1" source="hAxprEwVptctf-NwSV-K-16">
          <mxGeometry width="50" height="50" relative="1" as="geometry">
            <mxPoint x="530" y="90" as="sourcePoint" />
            <mxPoint x="525" y="100" as="targetPoint" />
          </mxGeometry>
        </mxCell>
        <mxCell id="hAxprEwVptctf-NwSV-K-35" value="" style="endArrow=classic;html=1;rounded=0;exitX=0.5;exitY=1;exitDx=0;exitDy=0;" edge="1" parent="1" source="hAxprEwVptctf-NwSV-K-19">
          <mxGeometry width="50" height="50" relative="1" as="geometry">
            <mxPoint x="720" y="130" as="sourcePoint" />
            <mxPoint x="710" y="140" as="targetPoint" />
          </mxGeometry>
        </mxCell>
        <mxCell id="hAxprEwVptctf-NwSV-K-39" value="" style="endArrow=classic;startArrow=classic;html=1;rounded=0;entryX=0;entryY=0.5;entryDx=0;entryDy=0;exitX=1;exitY=0.5;exitDx=0;exitDy=0;" edge="1" parent="1" source="hAxprEwVptctf-NwSV-K-29" target="hAxprEwVptctf-NwSV-K-28">
          <mxGeometry width="50" height="50" relative="1" as="geometry">
            <mxPoint x="260" y="340" as="sourcePoint" />
            <mxPoint x="310" y="290" as="targetPoint" />
          </mxGeometry>
        </mxCell>
        <mxCell id="hAxprEwVptctf-NwSV-K-40" value="" style="endArrow=classic;startArrow=classic;html=1;rounded=0;exitX=1;exitY=0.5;exitDx=0;exitDy=0;entryX=0;entryY=0.5;entryDx=0;entryDy=0;" edge="1" parent="1" source="hAxprEwVptctf-NwSV-K-28" target="hAxprEwVptctf-NwSV-K-27">
          <mxGeometry width="50" height="50" relative="1" as="geometry">
            <mxPoint x="440" y="150" as="sourcePoint" />
            <mxPoint x="450" y="150" as="targetPoint" />
          </mxGeometry>
        </mxCell>
        <mxCell id="hAxprEwVptctf-NwSV-K-41" value="" style="endArrow=classic;startArrow=classic;html=1;rounded=0;exitX=1;exitY=0.5;exitDx=0;exitDy=0;" edge="1" parent="1" source="hAxprEwVptctf-NwSV-K-27">
          <mxGeometry width="50" height="50" relative="1" as="geometry">
            <mxPoint x="620" y="150" as="sourcePoint" />
            <mxPoint x="640" y="150" as="targetPoint" />
          </mxGeometry>
        </mxCell>
        <mxCell id="hAxprEwVptctf-NwSV-K-42" value="" style="endArrow=classic;startArrow=classic;html=1;rounded=0;entryX=0.881;entryY=-0.022;entryDx=0;entryDy=0;exitX=0.5;exitY=1;exitDx=0;exitDy=0;entryPerimeter=0;" edge="1" parent="1" source="hAxprEwVptctf-NwSV-K-4" target="hAxprEwVptctf-NwSV-K-1">
          <mxGeometry width="50" height="50" relative="1" as="geometry">
            <mxPoint x="700" y="200" as="sourcePoint" />
            <mxPoint x="756.75" y="200" as="targetPoint" />
          </mxGeometry>
        </mxCell>
        <mxCell id="hAxprEwVptctf-NwSV-K-43" value="" style="endArrow=classic;startArrow=classic;html=1;rounded=0;exitX=0.5;exitY=1;exitDx=0;exitDy=0;entryX=0.603;entryY=-0.011;entryDx=0;entryDy=0;entryPerimeter=0;" edge="1" parent="1" source="hAxprEwVptctf-NwSV-K-6" target="hAxprEwVptctf-NwSV-K-1">
          <mxGeometry width="50" height="50" relative="1" as="geometry">
            <mxPoint x="510" y="190" as="sourcePoint" />
            <mxPoint x="525" y="220" as="targetPoint" />
          </mxGeometry>
        </mxCell>
        <mxCell id="hAxprEwVptctf-NwSV-K-44" value="" style="endArrow=classic;startArrow=classic;html=1;rounded=0;" edge="1" parent="1">
          <mxGeometry width="50" height="50" relative="1" as="geometry">
            <mxPoint x="340" y="180" as="sourcePoint" />
            <mxPoint x="340" y="230" as="targetPoint" />
          </mxGeometry>
        </mxCell>
        <mxCell id="hAxprEwVptctf-NwSV-K-52" value="" style="endArrow=none;dashed=1;html=1;rounded=0;entryX=0;entryY=0.5;entryDx=0;entryDy=0;" edge="1" parent="1" target="hAxprEwVptctf-NwSV-K-8">
          <mxGeometry width="50" height="50" relative="1" as="geometry">
            <mxPoint x="30" y="105" as="sourcePoint" />
            <mxPoint x="340" y="260" as="targetPoint" />
            <Array as="points" />
          </mxGeometry>
        </mxCell>
        <mxCell id="hAxprEwVptctf-NwSV-K-53" value="" style="endArrow=none;dashed=1;html=1;rounded=0;startArrow=none;" edge="1" parent="1" source="hAxprEwVptctf-NwSV-K-59">
          <mxGeometry width="50" height="50" relative="1" as="geometry">
            <mxPoint x="30" y="600" as="sourcePoint" />
            <mxPoint x="30" y="110" as="targetPoint" />
          </mxGeometry>
        </mxCell>
        <mxCell id="hAxprEwVptctf-NwSV-K-56" value="" style="endArrow=none;dashed=1;html=1;rounded=0;" edge="1" parent="1">
          <mxGeometry width="50" height="50" relative="1" as="geometry">
            <mxPoint x="30" y="600" as="sourcePoint" />
            <mxPoint x="230" y="600" as="targetPoint" />
          </mxGeometry>
        </mxCell>
        <mxCell id="hAxprEwVptctf-NwSV-K-58" value="" style="endArrow=classic;html=1;rounded=0;entryX=-0.023;entryY=0.613;entryDx=0;entryDy=0;entryPerimeter=0;" edge="1" parent="1" target="hAxprEwVptctf-NwSV-K-10">
          <mxGeometry width="50" height="50" relative="1" as="geometry">
            <mxPoint x="230" y="599" as="sourcePoint" />
            <mxPoint x="340" y="370" as="targetPoint" />
          </mxGeometry>
        </mxCell>
        <mxCell id="hAxprEwVptctf-NwSV-K-59" value="" style="shape=process;whiteSpace=wrap;html=1;backgroundOutline=1;" vertex="1" parent="1">
          <mxGeometry x="10" y="360" width="40" height="10" as="geometry" />
        </mxCell>
        <mxCell id="hAxprEwVptctf-NwSV-K-62" value="" style="endArrow=none;dashed=1;html=1;rounded=0;" edge="1" parent="1" target="hAxprEwVptctf-NwSV-K-59">
          <mxGeometry width="50" height="50" relative="1" as="geometry">
            <mxPoint x="30" y="600" as="sourcePoint" />
            <mxPoint x="30" y="110" as="targetPoint" />
          </mxGeometry>
        </mxCell>
        <mxCell id="hAxprEwVptctf-NwSV-K-64" value="" style="endArrow=none;dashed=1;html=1;rounded=0;" edge="1" parent="1">
          <mxGeometry width="50" height="50" relative="1" as="geometry">
            <mxPoint x="100" y="470" as="sourcePoint" />
            <mxPoint x="100" y="200" as="targetPoint" />
          </mxGeometry>
        </mxCell>
        <mxCell id="hAxprEwVptctf-NwSV-K-65" value="" style="endArrow=classic;startArrow=classic;html=1;rounded=0;" edge="1" parent="1">
          <mxGeometry width="50" height="50" relative="1" as="geometry">
            <mxPoint x="180" y="180" as="sourcePoint" />
            <mxPoint x="180" y="230" as="targetPoint" />
          </mxGeometry>
        </mxCell>
        <mxCell id="hAxprEwVptctf-NwSV-K-66" value="" style="endArrow=classic;html=1;rounded=0;" edge="1" parent="1">
          <mxGeometry width="50" height="50" relative="1" as="geometry">
            <mxPoint x="100" y="200" as="sourcePoint" />
            <mxPoint x="100" y="180" as="targetPoint" />
          </mxGeometry>
        </mxCell>
        <mxCell id="hAxprEwVptctf-NwSV-K-67" value="" style="endArrow=none;dashed=1;html=1;rounded=0;entryX=0;entryY=0.5;entryDx=0;entryDy=0;" edge="1" parent="1" target="hAxprEwVptctf-NwSV-K-9">
          <mxGeometry width="50" height="50" relative="1" as="geometry">
            <mxPoint x="100" y="470" as="sourcePoint" />
            <mxPoint x="330" y="320" as="targetPoint" />
          </mxGeometry>
        </mxCell>
        <mxCell id="hAxprEwVptctf-NwSV-K-68" value="" style="shape=process;whiteSpace=wrap;html=1;backgroundOutline=1;" vertex="1" parent="1">
          <mxGeometry x="80" y="360" width="40" height="10" as="geometry" />
        </mxCell>
        <mxCell id="hAxprEwVptctf-NwSV-K-69" value="" style="endArrow=classic;html=1;rounded=0;" edge="1" parent="1">
          <mxGeometry width="50" height="50" relative="1" as="geometry">
            <mxPoint x="10" y="350" as="sourcePoint" />
            <mxPoint x="50" y="350" as="targetPoint" />
          </mxGeometry>
        </mxCell>
        <mxCell id="hAxprEwVptctf-NwSV-K-70" value="" style="endArrow=classic;html=1;rounded=0;" edge="1" parent="1">
          <mxGeometry width="50" height="50" relative="1" as="geometry">
            <mxPoint x="80" y="350" as="sourcePoint" />
            <mxPoint x="120" y="350" as="targetPoint" />
          </mxGeometry>
        </mxCell>
        <mxCell id="hAxprEwVptctf-NwSV-K-71" value="" style="endArrow=classic;html=1;rounded=0;exitX=1.015;exitY=0.588;exitDx=0;exitDy=0;exitPerimeter=0;entryX=-0.031;entryY=0.618;entryDx=0;entryDy=0;entryPerimeter=0;" edge="1" parent="1" source="hAxprEwVptctf-NwSV-K-10" target="hAxprEwVptctf-NwSV-K-14">
          <mxGeometry width="50" height="50" relative="1" as="geometry">
            <mxPoint x="280" y="390" as="sourcePoint" />
            <mxPoint x="330" y="340" as="targetPoint" />
          </mxGeometry>
        </mxCell>
        <mxCell id="hAxprEwVptctf-NwSV-K-72" value="" style="endArrow=classic;html=1;rounded=0;entryX=1;entryY=0.5;entryDx=0;entryDy=0;exitX=0;exitY=0;exitDx=0;exitDy=50;exitPerimeter=0;" edge="1" parent="1" source="hAxprEwVptctf-NwSV-K-14" target="hAxprEwVptctf-NwSV-K-9">
          <mxGeometry width="50" height="50" relative="1" as="geometry">
            <mxPoint x="470" y="500" as="sourcePoint" />
            <mxPoint x="330" y="340" as="targetPoint" />
          </mxGeometry>
        </mxCell>
      </root>
    </mxGraphModel>
  </diagram>
</mxfile>
